<svg id="Capa_1" enable-background="new 0 0 512 512" height="512" viewBox="0 0 512 512" width="512"
	xmlns="http://www.w3.org/2000/svg"
	xmlns:xlink="http://www.w3.org/1999/xlink">
	<linearGradient id="lg1">
		<stop offset="0" stop-color="#43386b"/>
		<stop offset="1" stop-color="#7662bd"/>
	</linearGradient>
	<linearGradient id="SVGID_1_" gradientUnits="userSpaceOnUse" x1="394.973" x2="401.088" xlink:href="#lg1" y1="267.445" y2="256.853"/>
	<linearGradient id="SVGID_2_" gradientTransform="matrix(-1 0 0 1 1933.929 0)" gradientUnits="userSpaceOnUse" x1="1512.62" x2="1512.62" xlink:href="#lg1" y1="312.441" y2="259.015"/>
	<linearGradient id="SVGID_3_" gradientUnits="userSpaceOnUse" x1="429.402" x2="419.354" xlink:href="#lg1" y1="270.829" y2="288.232"/>
	<linearGradient id="SVGID_4_" gradientUnits="userSpaceOnUse" x1="426.669" x2="432.785" xlink:href="#lg1" y1="167.37" y2="156.778"/>
	<linearGradient id="SVGID_5_" gradientTransform="matrix(-1 0 0 1 1933.929 0)" gradientUnits="userSpaceOnUse" x1="1480.923" x2="1480.923" xlink:href="#lg1" y1="212.366" y2="158.94"/>
	<linearGradient id="SVGID_6_" gradientUnits="userSpaceOnUse" x1="461.099" x2="451.051" xlink:href="#lg1" y1="170.754" y2="188.157"/>
	<linearGradient id="lg2">
		<stop offset="0" stop-color="#e37a34"/>
		<stop offset="1" stop-color="#ffc538"/>
	</linearGradient>
	<linearGradient id="SVGID_7_" gradientUnits="userSpaceOnUse" x1="296.804" x2="437.808" xlink:href="#lg2" y1="339.728" y2="166.998"/>
	<linearGradient id="SVGID_8_" gradientUnits="userSpaceOnUse" x1="224.379" x2="230.495" xlink:href="#lg1" y1="378.433" y2="367.84"/>
	<linearGradient id="SVGID_9_" gradientTransform="matrix(-1 0 0 1 1933.929 0)" gradientUnits="userSpaceOnUse" x1="1683.214" x2="1683.214" xlink:href="#lg1" y1="423.428" y2="370.003"/>
	<linearGradient id="SVGID_10_" gradientUnits="userSpaceOnUse" x1="258.808" x2="248.76" xlink:href="#lg1" y1="381.816" y2="399.22"/>
	<linearGradient id="SVGID_11_" gradientUnits="userSpaceOnUse" x1="106.605" x2="112.72" xlink:href="#lg1" y1="382.584" y2="371.992"/>
	<linearGradient id="SVGID_12_" gradientTransform="matrix(-1 0 0 1 1933.929 0)" gradientUnits="userSpaceOnUse" x1="1800.988" x2="1800.988" xlink:href="#lg1" y1="427.579" y2="374.154"/>
	<linearGradient id="SVGID_13_" gradientUnits="userSpaceOnUse" x1="141.034" x2="130.986" xlink:href="#lg1" y1="385.968" y2="403.371"/>
	<linearGradient id="SVGID_14_" gradientUnits="userSpaceOnUse" x1="273.56" x2="313.778" xlink:href="#lg2" y1="371.328" y2="301.669"/>
	<linearGradient id="SVGID_15_" gradientUnits="userSpaceOnUse" x1="92.759" x2="192.386" xlink:href="#lg2" y1="133.264" y2="133.264"/>
	<g>
		<g>
			<path d="m431.173 264.43-49.019-28.03v.001c-2.565-1.359-5.859-1.165-9.453.91-8.178 4.721-14.807 17.388-14.807 28.291 0 5.994 2.006 10.202 5.17 11.997l-.002.005 48.458 27.717 1.536-3.197c.707-.27 1.431-.613 2.167-1.038 8.177-4.721 14.807-17.388 14.807-28.291 0-1.8-.184-3.436-.523-4.898z" fill="url(#SVGID_1_)"/>
			<path d="m436.116 276.298c0-10.903-6.629-15.915-14.807-11.194-8.177 4.721-14.807 17.388-14.807 28.291s6.629 15.915 14.807 11.194c8.177-4.722 14.807-17.388 14.807-28.291z" fill="url(#SVGID_2_)"/>
			<path d="m430.528 279.524c0-6.789-4.127-9.909-9.219-6.969-5.091 2.94-9.219 10.826-9.219 17.614 0 6.789 4.127 9.909 9.219 6.969 5.091-2.939 9.219-10.826 9.219-17.614z" fill="url(#SVGID_3_)"/>
		</g>
		<g>
			<path d="m462.87 164.355-49.019-28.03v.001c-2.565-1.359-5.859-1.165-9.453.91-8.178 4.721-14.807 17.388-14.807 28.291 0 5.994 2.006 10.202 5.17 11.997l-.002.005 48.458 27.717 1.536-3.197c.707-.27 1.431-.613 2.167-1.038 8.178-4.721 14.807-17.388 14.807-28.291 0-1.8-.184-3.436-.523-4.898z" fill="url(#SVGID_4_)"/>
			<path d="m467.812 176.223c0-10.903-6.629-15.915-14.807-11.194s-14.807 17.387-14.807 28.291c0 10.903 6.629 15.915 14.807 11.194 8.178-4.722 14.807-17.388 14.807-28.291z" fill="url(#SVGID_5_)"/>
			<path d="m462.224 179.449c0-6.789-4.128-9.909-9.219-6.969-5.091 2.939-9.219 10.826-9.219 17.614 0 6.789 4.127 9.909 9.219 6.969 5.092-2.939 9.219-10.826 9.219-17.614z" fill="url(#SVGID_6_)"/>
		</g>
		<path d="m290.498 259.592 136.552-179.909 37.452 21.623-73.294 223.268z" fill="url(#SVGID_7_)"/>
		<g>
			<path d="m260.579 375.417-49.019-28.03v.001c-2.565-1.359-5.859-1.165-9.453.91-8.177 4.721-14.807 17.388-14.807 28.291 0 5.994 2.006 10.202 5.17 11.997l-.002.005 48.458 27.717 1.536-3.197c.708-.27 1.431-.613 2.167-1.039 8.178-4.721 14.807-17.388 14.807-28.291 0-1.8-.184-3.436-.523-4.898z" fill="url(#SVGID_8_)"/>
			<path d="m265.522 387.285c0-10.904-6.629-15.915-14.807-11.194-8.177 4.721-14.807 17.388-14.807 28.291s6.629 15.915 14.807 11.194 14.807-17.387 14.807-28.291z" fill="url(#SVGID_9_)"/>
			<path d="m259.934 390.511c0-6.789-4.128-9.909-9.219-6.969s-9.219 10.826-9.219 17.614c0 6.789 4.127 9.909 9.219 6.969 5.091-2.939 9.219-10.825 9.219-17.614z" fill="url(#SVGID_10_)"/>
		</g>
		<g>
			<path d="m142.805 379.569-49.019-28.03v.001c-2.565-1.359-5.859-1.165-9.453.91-8.178 4.721-14.807 17.388-14.807 28.291 0 5.995 2.006 10.202 5.17 11.997l-.002.005 48.458 27.717 1.536-3.197c.708-.27 1.431-.613 2.167-1.039 8.178-4.721 14.807-17.388 14.807-28.291 0-1.8-.184-3.436-.523-4.898z" fill="url(#SVGID_11_)"/>
			<path d="m147.747 391.437c0-10.904-6.629-15.915-14.807-11.194s-14.807 17.388-14.807 28.291 6.629 15.915 14.807 11.194c8.178-4.722 14.807-17.388 14.807-28.291z" fill="url(#SVGID_12_)"/>
			<path d="m142.16 394.663c0-6.789-4.128-9.909-9.219-6.969s-9.219 10.826-9.219 17.614 4.127 9.909 9.219 6.969c5.091-2.94 9.219-10.826 9.219-17.614z" fill="url(#SVGID_13_)"/>
		</g>
		<path d="m180.635 212.451 14.493-63.847-29.326-16.931-37.262 51.009z" fill="#ffc538"/>
		<path d="m491.136 402.047s20.864 18.003 20.702 25.776c0 0 2.079 16.463-8.648 22.656 0 0-29.334 21.177-68.127 5.705 0 0-56.089-25.852-116.407-66.681-31.413-21.263-104.109-88.367-162.331-148.412l-45.907-48.369c-3.945-4.156-4.907-10.319-2.418-15.48 3.389-7.022 11.925-9.836 18.826-6.206l274.74 147.012c36.831 19.487 67.762 48.494 89.57 83.999z" fill="url(#SVGID_14_)"/>
		<path d="m192.386 216.368-53.271-139.444-46.356-26.764 24.408 122.78z" fill="url(#SVGID_15_)"/>
		<path d="m161.834 225.377h-95.574l-25.781-14.884 81.793-20.76z" fill="#ffc538"/>
		<path d="m487.336 396.086c-6.917-10.531-14.663-20.44-23.132-29.663 1.33 4.469-.011 11.472-4.403 15.648-11.208 10.658-47.783 13.449-65.85 7.427-9.856-3.285-14.976-6.407-14.976-6.407l10.712 22.482s25.46 20.76 59.538 14.884c22.478-3.875 33.193-14.397 38.111-24.371z" fill="#43386b"/>
		<path d="m236.984 304.597-236.984 53.97 40.479 23.371 267.727-3.368c-2.837-19.387-13.869-36.62-30.287-47.312z" fill="#ffc538"/>
	</g>
</svg>