<svg xmlns="http://www.w3.org/2000/svg" viewBox="0 0 167.76 77.8"><defs><style>.cls-1{isolation:isolate;}.cls-2{fill:#b52522;}.cls-3{fill:#2f3957;}.cls-4{fill:#ce2409;}.cls-5{fill:#ff2d0b;}.cls-6{fill:#aeaf9e;}.cls-7{fill:#cbccbe;}.cls-8{fill:#e9eada;}.cls-9{fill:#5a6a9c;}.cls-10{fill:#d3d4c5;mix-blend-mode:multiply;}.cls-11{fill:#5b538a;}.cls-12{fill:#6a61a1;}.cls-13{fill:#ed4a2f;}.cls-14{fill:#feffee;}</style></defs><g class="cls-1"><g id="Layer_2" data-name="Layer 2"><g id="Layer_1-2" data-name="Layer 1"><path class="cls-2" d="M126.32,39.58a7.13,7.13,0,1,0,7.35-6.91A7.12,7.12,0,0,0,126.32,39.58Z"/><path class="cls-3" d="M127.25,39.61a6.2,6.2,0,1,0,6.39-6A6.19,6.19,0,0,0,127.25,39.61Z"/><path class="cls-4" d="M133.65,33.45a6.24,6.24,0,0,0-4.55,1.72,6.35,6.35,0,0,0,4.15,11h.2a6.36,6.36,0,0,0,.2-12.71Zm-.39,12.4a6,6,0,1,1,4.6-10.19,6.06,6.06,0,0,1-4.6,10.19Z"/><rect class="cls-2" x="126.62" y="39.15" width="13" height="0.93" transform="translate(18.93 118.68) rotate(-51.27)"/><rect class="cls-2" x="133.33" y="32.92" width="0.93" height="13.22" transform="translate(15.66 113.74) rotate(-48.6)"/><rect class="cls-2" x="126.69" y="39.42" width="13.56" height="0.93" transform="translate(-5.3 27.75) rotate(-11.64)"/><polygon class="cls-2" points="133.75 46.32 134.68 46.32 133.19 32.95 132.27 33.06 133.75 46.32"/><path class="cls-4" d="M131.59,39.74a1.86,1.86,0,1,0,1.92-1.8A1.86,1.86,0,0,0,131.59,39.74Z"/><path class="cls-5" d="M132.38,39.77a1.07,1.07,0,1,0,1.1-1A1.07,1.07,0,0,0,132.38,39.77Z"/><path class="cls-2" d="M141.3,32.73a7.13,7.13,0,1,0,7.35-6.91A7.12,7.12,0,0,0,141.3,32.73Z"/><path class="cls-3" d="M142.23,32.76a6.2,6.2,0,1,0,6.39-6A6.19,6.19,0,0,0,142.23,32.76Z"/><path class="cls-4" d="M148.63,26.6a6.35,6.35,0,0,0-6.56,6.15,6.36,6.36,0,0,0,6.15,6.56h.21a6.36,6.36,0,0,0,.2-12.71Zm-.4,12.4a6.06,6.06,0,1,1,6.24-5.86A6.06,6.06,0,0,1,148.23,39Z"/><rect class="cls-2" x="141.6" y="32.3" width="13" height="0.93" transform="translate(29.88 127.79) rotate(-51.27)"/><rect class="cls-2" x="148.31" y="26.07" width="0.93" height="13.22" transform="translate(25.87 122.65) rotate(-48.6)"/><rect class="cls-2" x="141.67" y="32.57" width="13.56" height="0.93" transform="translate(-3.61 30.63) rotate(-11.64)"/><polygon class="cls-2" points="148.73 39.52 149.65 39.52 148.17 26.1 147.25 26.21 148.73 39.52"/><path class="cls-4" d="M146.57,32.89a1.86,1.86,0,1,0,3.72.12,1.86,1.86,0,1,0-3.72-.12Z"/><path class="cls-5" d="M147.36,32.92a1.07,1.07,0,1,0,1.1-1A1.06,1.06,0,0,0,147.36,32.92Z"/><path class="cls-2" d="M17.16,66.78a7.24,7.24,0,1,0,7.47-7A7.24,7.24,0,0,0,17.16,66.78Z"/><path class="cls-3" d="M18.1,66.81a6.3,6.3,0,1,0,6.5-6.09A6.3,6.3,0,0,0,18.1,66.81Z"/><path class="cls-4" d="M24.6,60.56a6.46,6.46,0,0,0-6.66,6.25,6.48,6.48,0,0,0,6.25,6.66h.21a6.46,6.46,0,0,0,.2-12.91Zm-.4,12.59a6.14,6.14,0,1,1,6.34-5.94A6.15,6.15,0,0,1,24.2,73.15Z"/><rect class="cls-2" x="17.46" y="66.35" width="13.2" height="0.95" transform="translate(-43.12 43.79) rotate(-51.27)"/><rect class="cls-2" x="24.28" y="60.02" width="0.95" height="13.42" transform="translate(-41.65 41.09) rotate(-48.54)"/><rect class="cls-2" x="17.54" y="66.62" width="13.76" height="0.95" transform="translate(-13.03 6.31) rotate(-11.64)"/><polygon class="cls-2" points="24.72 73.88 25.67 73.72 24.14 60.06 23.2 60.16 24.72 73.88"/><path class="cls-4" d="M22.51,67a1.89,1.89,0,1,0,1.95-1.83A1.89,1.89,0,0,0,22.51,67Z"/><path class="cls-5" d="M23.31,67a1.1,1.1,0,0,0,1.05,1.12A1.09,1.09,0,1,0,23.31,67Z"/><path class="cls-2" d="M37.51,64.09a7.13,7.13,0,1,0,7.36-6.9A7.12,7.12,0,0,0,37.51,64.09Z"/><path class="cls-3" d="M38.44,64.12a6.2,6.2,0,1,0,6.4-6A6.2,6.2,0,0,0,38.44,64.12Z"/><path class="cls-4" d="M44.84,58a6.36,6.36,0,0,0-.4,12.72h.2A6.36,6.36,0,0,0,44.84,58Zm-.39,12.41a6.07,6.07,0,0,1-5.86-6.24,6,6,0,0,1,1.91-4.22,6,6,0,0,1,8.55.27,6,6,0,0,1,1.63,4.33A6.06,6.06,0,0,1,44.45,70.37Z"/><rect class="cls-2" x="37.81" y="63.66" width="13" height="0.93" transform="translate(-33.44 58.57) rotate(-51.27)"/><rect class="cls-2" x="44.52" y="57.44" width="0.93" height="13.22" transform="translate(-32.81 55.43) rotate(-48.6)"/><rect class="cls-2" x="37.88" y="63.93" width="13.56" height="0.93" transform="translate(-12.07 10.34) rotate(-11.64)"/><polygon class="cls-2" points="44.95 70.9 45.87 70.68 44.39 57.47 43.46 57.57 44.95 70.9"/><path class="cls-4" d="M42.78,64.26a1.86,1.86,0,1,0,1.92-1.8A1.86,1.86,0,0,0,42.78,64.26Z"/><path class="cls-5" d="M43.57,64.29a1.07,1.07,0,1,0,1.1-1A1.07,1.07,0,0,0,43.57,64.29Z"/><path class="cls-6" d="M105.35,24.78,166.75,10s.49.82.79,1.38c4.68,8.74-66.84,36.06-66.84,36.06Z"/><path class="cls-7" d="M105.35,24.78s55.07-21.6,61.25-15S99.93,46.16,99.93,46.16Z"/><path class="cls-6" d="M60.21,37.22,0,56.28s0,.95,0,1.59c.51,9.9,75.86-3.64,75.86-3.64Z"/><path class="cls-7" d="M60.21,37.22S1.89,47.17,0,56s75.86-3.32,75.86-3.32Z"/><path class="cls-7" d="M79.38.86,88,18.06,74.75,19.78,76.46,1.41A1.54,1.54,0,0,1,79.38.86Z"/><path class="cls-2" d="M47.77,23s.42,1.77,4.07,2.75,22,1.15,22,1.15S93.59,22.72,94,22.56h0c3-1.33,16.54-7.33,19.18-9.4,3-2.34,2.67-4.13,2.67-4.13L92.46,13.88,68.9,18.75h0Z"/><path class="cls-8" d="M79,15.81c5.91-1.62,12.08-2.37,17.78-.11A21.06,21.06,0,0,1,107,23.94c7.33,11.42,14.14,10.23,14.64,17.48s-.15,25.26-20.43,33.63S62.67,70.68,58,63.41,52.19,51.56,57.12,44s-.6-3.71,7.4-18.92C66.51,21.28,71.53,17.85,79,15.81Z"/><path class="cls-9" d="M101.23,75.05c20.28-8.37,20.93-26.38,20.43-33.63-.23-3.36-1.81-4.9-4.17-6.73l-4.14,4.84A45.84,45.84,0,0,1,62.8,52.78L54.38,49.7c-1.28,4.59.25,8.45,3.63,13.71C62.67,70.68,81,83.43,101.23,75.05Z"/><path class="cls-2" d="M62.8,52.78,54.38,49.7A11.24,11.24,0,0,0,54,54.35l8.77,3.21a45.85,45.85,0,0,0,50.55-13.24l6.46-7.55a16.53,16.53,0,0,0-2.32-2.08l-4.14,4.84A45.84,45.84,0,0,1,62.8,52.78Z"/><path class="cls-10" d="M101.23,75.05C120.8,67,122.09,49.92,121.71,42.22c-4,12.4-13.75,28.6-37.66,29.81-16.7.84-25.37-7.86-29.86-16.75A25.07,25.07,0,0,0,58,63.41C62.67,70.68,81,83.43,101.23,75.05Z"/><path class="cls-11" d="M96.52,22c4.14-1.25,5.42,1.41,7.8,4.8,2.13,3,3.64,5.19,3.25,7.73-.79,5.11-26.31,12.66-39.09,10.77-3.07-.45-2.64-4.39-2.61-7.6,0-3.57.13-8.83,2-9.75C70.11,26.84,87.32,24.75,96.52,22Z"/><path class="cls-12" d="M88.84,36.36c7.83,0,14.7-1.59,18.62-4-.43-1.72-1.63-3.43-3.14-5.59-2.38-3.39-3.66-6.05-7.8-4.8-9.2,2.78-26.41,4.87-28.63,6a2.16,2.16,0,0,0-.91,1C68.44,33.12,77.67,36.36,88.84,36.36Z"/><path class="cls-8" d="M112.59,35.36A49,49,0,0,0,96,34.09c-16.18,1.25-31.09,8.42-34.85,16.44C80,47.38,99.59,43.5,112.59,35.36Z"/><path class="cls-2" d="M75.67,55.79a15.12,15.12,0,1,0,18-11.55A15.12,15.12,0,0,0,75.67,55.79Z"/><path class="cls-13" d="M84.64,58.31a7.78,7.78,0,1,0,9.55-5.47A7.78,7.78,0,0,0,84.64,58.31Z"/><path class="cls-14" d="M75.89,41.7l6.4,1.36,9.86-2.19,5-5S86.82,34.46,75.89,41.7Z"/><path class="cls-8" d="M39,44.6s-35.6,7.49-29.5,9.5,30.76-2.37,30.76-2.37l8-8.95Z"/></g></g></g></svg>