<svg id="Layer_1" enable-background="new 0 0 512.002 512.002" height="512" viewBox="0 0 512.002 512.002" width="512" xmlns="http://www.w3.org/2000/svg"><g><g clip-rule="evenodd" fill-rule="evenodd"><path d="m256.001 382h-77.706-90.59-77.705v20.001c0 11 9 20 20 20h394.296v-40.001h-90.59z" fill="#8481e2"/><path d="m424.296 382v40.001h57.706c11 0 20-8.999 20-20v-20.001h-75.407z" fill="#b5b3ee"/><path d="m205.366 422.001h101.303l19.813 80h-140.961z" fill="#b5b3ee"/><circle cx="362.001" cy="110.001" fill="#fff" r="35"/><path d="m327.002 110.001c0-19.33 15.67-35 35-35s35 15.67 35 35-15.67 35-35 35c-19.331 0-35-15.67-35-35zm58.038-97.287c-7.499-1.783-15.229-2.709-23.039-2.712-7.81.003-15.54.929-23.039 2.712l1.379 16.082-10.223 4.235-10.221 4.233-10.395-12.344c-12.991 8.003-24.247 19.023-32.591 32.579l12.353 10.401-4.234 10.22-1.608 3.881-2.626 6.34-16.094-1.379c-3.686 15.484-3.517 31.239.013 46.084l16.079-1.381 4.235 10.223 4.234 10.221-12.346 10.394c8.001 12.993 19.023 24.253 32.575 32.596l10.406-12.356 10.22 4.233 10.221 4.234-1.379 16.089c7.663 1.824 15.39 2.704 23.04 2.701 7.651.003 15.378-.877 23.041-2.701l-1.379-16.089 10.221-4.234 10.22-4.233 10.405 12.356c13.553-8.342 24.575-19.603 32.576-32.596l-12.346-10.394 4.234-10.221 4.235-10.223 16.079 1.381c3.53-14.845 3.699-30.6.013-46.084l-16.094 1.379-2.626-6.34-1.607-3.881-4.234-10.22 12.354-10.4c-8.344-13.555-19.599-24.576-32.591-32.579l-10.395 12.344-10.221-4.233-10.223-4.235z" fill="#6d91ac"/><g fill="#ffc144"><path d="m50.002 124.5h45v45h-45z"/><path d="m135.003 124.5h45v45h-45z"/><path d="m135.003 209.501h45v45h-45z"/><path d="m50.002 209.501h45v45h-45z"/><path d="m50.002 294.502h45v45h-45z"/><path d="m135.003 294.502h45v45h-45z"/><path d="m220.004 294.502h45v45h-45z"/></g><path d="m265.004 294.502v45h-45v-45zm139.1-111.758-10.22 4.233-10.221 4.234 1.379 16.089c-7.663 1.824-15.39 2.704-23.041 2.701-7.651.003-15.378-.877-23.04-2.701l1.379-16.089-10.221-4.234-10.22-4.233-10.406 12.356c-13.552-8.342-24.575-19.603-32.575-32.596l12.346-10.394-4.234-10.221-4.235-10.223-16.079 1.381c-3.531-14.845-3.699-30.6-.013-46.084l16.094 1.379 2.626-6.34h-253.423c-11 0-20 9-20 20v280h10.001 404.296 2.298 75.407v-280c0-10.999-9-20-20-20h-41.422l2.626 6.34 16.094-1.379c3.686 15.484 3.517 31.239-.013 46.084l-16.079-1.381-4.235 10.223-4.234 10.221 12.346 10.394c-8 12.993-19.023 24.253-32.576 32.596zm-224.101 111.758v45h-45v-45zm-85.001 0v45h-45v-45zm85.001-40.001h-45v-45h45zm-85.001-45v45h-45v-45zm85.001-40.001h-45v-45h45zm-85.001-45v45h-45v-45z" fill="#fff"/></g><g><path d="m482.002 72.001h-34.74l-.483-1.166 6.753-5.686c3.789-3.19 4.672-8.673 2.075-12.891-8.925-14.5-21.326-26.897-35.861-35.852-4.219-2.599-9.703-1.716-12.895 2.073l-5.681 6.747-6.921-2.867.753-8.791c.424-4.935-2.83-9.437-7.649-10.583-8.31-1.976-16.838-2.98-25.349-2.984-.002 0-.005 0-.008 0-8.51.004-17.037 1.008-25.348 2.984-4.819 1.146-8.073 5.647-7.649 10.583l.753 8.792-6.921 2.867-5.682-6.747c-3.19-3.79-8.676-4.671-12.894-2.073-14.535 8.954-26.937 21.351-35.861 35.852-2.597 4.218-1.714 9.701 2.075 12.891l6.753 5.686-.483 1.166h-246.739c-16.542 0-30 13.458-30 30v300c0 16.542 13.458 30 30 30h162.599l-14.883 60h-11.716c-5.523 0-10 4.477-10 10s4.477 10 10 10h180.004c5.522 0 10-4.477 10-10s-4.478-10-10-10h-11.686l-14.91-60h162.595c16.542 0 30-13.458 30-30v-300c-.001-16.543-13.459-30.001-30.001-30.001zm-174.326-33.725 4.573 5.43c2.807 3.333 7.45 4.465 11.475 2.797l20.445-8.469c4.026-1.668 6.509-5.751 6.136-10.093l-.606-7.083c4.08-.568 8.195-.855 12.303-.857 4.108.002 8.224.289 12.304.857l-.606 7.083c-.373 4.342 2.109 8.425 6.136 10.093l20.445 8.469c4.027 1.668 8.668.536 11.475-2.797l4.573-5.43c6.565 4.973 12.442 10.847 17.408 17.396l-5.437 4.578c-3.334 2.807-4.466 7.45-2.798 11.477l8.466 20.44c1.668 4.026 5.75 6.508 10.093 6.137l7.089-.607c1.119 8.142 1.115 16.453-.012 24.612l-7.073-.607c-4.34-.371-8.426 2.11-10.094 6.136l-8.47 20.445c-1.667 4.027-.535 8.669 2.799 11.477l5.432 4.573c-4.973 6.566-10.847 12.445-17.396 17.411l-4.582-5.441c-2.809-3.333-7.45-4.465-11.477-2.797l-20.44 8.467c-4.026 1.668-6.509 5.751-6.137 10.093l.608 7.088c-4.065.563-8.168.847-12.271.847-.013 0-.026 0-.04 0-.013 0-.025 0-.039 0-4.098 0-8.197-.284-12.261-.847l.607-7.088c.373-4.342-2.109-8.425-6.136-10.093l-20.441-8.467c-4.026-1.667-8.668-.535-11.476 2.797l-4.583 5.442c-6.549-4.966-12.423-10.845-17.396-17.411l5.432-4.573c3.334-2.807 4.466-7.45 2.799-11.477l-8.47-20.445c-1.669-4.026-5.754-6.508-10.094-6.136l-7.073.607c-1.128-8.16-1.131-16.47-.011-24.612l7.088.607c4.346.368 8.425-2.111 10.093-6.137l8.466-20.44c1.668-4.027.536-8.67-2.798-11.477l-5.437-4.578c4.966-6.55 10.843-12.424 17.409-17.397zm-287.676 363.725v-10.001h.001 190.997c5.523 0 10-4.477 10-10s-4.477-10-10-10h-190.997-.001v-270c0-5.514 4.486-10 10-10h223.504c-2.375 14.339-1.888 29.183 1.483 43.358 1.146 4.819 5.645 8.079 10.584 7.65l8.787-.755 2.865 6.919-6.746 5.68c-3.79 3.191-4.672 8.675-2.074 12.893 8.953 14.54 21.35 26.943 35.848 35.868 4.218 2.597 9.699 1.714 12.891-2.074l5.692-6.758 6.918 2.866-.754 8.797c-.424 4.935 2.829 9.437 7.648 10.583 8.289 1.973 16.803 2.973 25.302 2.973h.097c8.508 0 17.023-1 25.312-2.972 4.818-1.146 8.072-5.647 7.648-10.583l-.754-8.797 6.918-2.866 5.691 6.758c3.189 3.789 8.673 4.67 12.891 2.075 14.499-8.925 26.896-21.328 35.849-35.869 2.598-4.218 1.716-9.702-2.074-12.893l-6.746-5.68 2.865-6.919 8.787.755c4.946.429 9.438-2.831 10.584-7.65 3.371-14.174 3.858-29.018 1.484-43.358h11.502c5.514 0 10 4.486 10 10v270h-.001-191.003c-5.522 0-10 4.477-10 10s4.478 10 10 10h113.298v20h-384.296c-5.514 0-10-4.486-10-10zm293.709 90h-115.387l14.883-60h85.593zm168.293-80h-47.706v-20h57.705.001v10.001c0 5.513-4.486 9.999-10 9.999z"/><path d="m362.001 155.001c24.813 0 45-20.187 45-45s-20.187-45-45-45-44.999 20.187-44.999 45 20.186 45 44.999 45zm0-70c13.785 0 25 11.215 25 25s-11.215 25-25 25c-13.784 0-24.999-11.215-24.999-25s11.215-25 24.999-25z"/><path d="m95.001 114.5h-45c-5.523 0-10 4.477-10 10v45c0 5.523 4.477 10 10 10h45c5.523 0 10-4.477 10-10v-45c0-5.523-4.477-10-10-10zm-10 45h-25v-25h25z"/><path d="m95.001 199.501h-45c-5.523 0-10 4.477-10 10v45c0 5.523 4.477 10 10 10h45c5.523 0 10-4.477 10-10v-45c0-5.523-4.477-10-10-10zm-10 45h-25v-25h25z"/><path d="m95.001 284.502h-45c-5.523 0-10 4.477-10 10v45c0 5.523 4.477 10 10 10h45c5.523 0 10-4.477 10-10v-45c0-5.523-4.477-10-10-10zm-10 45h-25v-25h25z"/><path d="m180.003 114.5h-45c-5.523 0-10 4.477-10 10v45c0 5.523 4.477 10 10 10h45c5.523 0 10-4.477 10-10v-45c0-5.523-4.477-10-10-10zm-10 45h-25v-25h25z"/><path d="m180.003 199.501h-45c-5.523 0-10 4.477-10 10v45c0 5.523 4.477 10 10 10h45c5.523 0 10-4.477 10-10v-45c0-5.523-4.477-10-10-10zm-10 45h-25v-25h25z"/><path d="m180.003 284.502h-45c-5.523 0-10 4.477-10 10v45c0 5.523 4.477 10 10 10h45c5.523 0 10-4.477 10-10v-45c0-5.523-4.477-10-10-10zm-10 45h-25v-25h25z"/><path d="m265.004 284.502h-45c-5.523 0-10 4.477-10 10v45c0 5.523 4.477 10 10 10h45c5.522 0 10-4.477 10-10v-45c0-5.523-4.478-10-10-10zm-10 45h-25v-25h25z"/><path d="m462 329.502h-78.497c-5.522 0-10 4.477-10 10s4.478 10 10 10h78.497c5.522 0 10-4.477 10-10s-4.478-10-10-10z"/><path d="m362.001 304.502h99.999c5.522 0 10-4.477 10-10s-4.478-10-10-10h-99.999c-5.522 0-10 4.477-10 10s4.478 10 10 10z"/><path d="m256.001 372h-.007c-5.523 0-9.996 4.477-9.996 10s4.48 10 10.003 10 10-4.477 10-10-4.477-10-10-10z"/></g></g></svg>